<svg width="80" height="80" viewBox="0 0 80 80" fill="none" xmlns="http://www.w3.org/2000/svg">
<g clip-path="url(#clip0_2021_7904)">
<path d="M46.8344 55.7143H42.8003V20H46.8344V37.1975H67.3945V20H71.4286V55.7143H67.3945V41.323H46.8344V55.7143Z" fill="#FF4E16"/>
<path fill-rule="evenodd" clip-rule="evenodd" d="M10.8835 32.9111V44.273L7.14288 39.2856V28.3219L10.8835 32.9111ZM7.14288 20V25.7899L11.9821 31.727V31.7334L22.679 44.7746H23.1891L34.9846 30.3939V55.7143H38.7252V20H38.3852L22.934 38.6996L7.48294 20H7.14288Z" fill="#FF4E16"/>
<path d="M2.93241 54.3237C2.13665 53.8833 1.51106 53.5229 0.870448 53.1876C0.589024 53.0821 0.351189 52.8851 0.195092 52.6283C0.0389953 52.3715 -0.026317 52.0697 0.00963052 51.7713C0.109726 51.0756 0.600191 50.7703 1.2408 50.6502C3.9734 50.0696 6.70099 49.4691 9.43358 48.8835C10.6247 48.6283 11.3654 49.344 11.1152 50.5451C10.5346 53.3227 9.92906 56.0904 9.3435 58.868C9.30797 59.146 9.18329 59.405 8.98814 59.6062C8.793 59.8074 8.5379 59.9399 8.26109 59.9839C7.98428 60.0278 7.70068 59.9809 7.4528 59.8501C7.20491 59.7193 7.0061 59.5117 6.88616 59.2584C6.59088 58.7579 6.28059 58.2274 6.02034 57.6919C5.76009 57.1564 5.51987 57.1914 5.17454 57.5918C4.67406 58.0923 4.17359 58.5927 3.67311 59.0932C3.55569 59.234 3.40875 59.3473 3.2427 59.425C3.07665 59.5028 2.89555 59.5431 2.7122 59.5431C2.52885 59.5431 2.34775 59.5028 2.18169 59.425C2.01565 59.3473 1.86871 59.234 1.75128 59.0932C1.456 58.8129 1.17073 58.5277 0.890467 58.2324C0.747358 58.117 0.631907 57.971 0.55259 57.8052C0.473273 57.6393 0.432103 57.4578 0.432103 57.274C0.432103 57.0901 0.473273 56.9086 0.55259 56.7428C0.631907 56.5769 0.747358 56.431 0.890467 56.3156C1.53608 55.67 2.18169 55.0594 2.93241 54.3237ZM5.73006 56.0703C6.09678 56.3106 6.4329 56.5947 6.73102 56.9161C7.09636 57.4166 7.33659 57.9922 7.65689 58.5227C7.77737 58.6841 7.91874 58.8288 8.07729 58.9531C8.20056 58.8013 8.30166 58.6328 8.37758 58.4526C8.96314 55.7801 9.52367 53.1075 10.1192 50.445C10.2393 49.8995 10.0642 49.7744 9.57872 49.8845C6.86614 50.475 4.15357 51.0606 1.44099 51.6612C1.29571 51.7233 1.16202 51.8096 1.04561 51.9164C1.14571 52.0415 1.21578 52.2067 1.3409 52.2817C1.91144 52.6171 2.507 52.9123 3.07755 53.2527C3.25224 53.3441 3.40297 53.4753 3.51753 53.6358C3.6321 53.7962 3.70728 53.9814 3.73701 54.1763C3.76673 54.3712 3.75016 54.5704 3.68863 54.7577C3.6271 54.945 3.52235 55.1152 3.38284 55.2546C3.04251 55.6349 2.65214 55.9752 2.30181 56.3506C1.2458 57.4617 1.17574 57.0112 2.35686 58.2524C2.63713 58.5477 2.85734 58.4926 3.09256 58.2224C3.59303 57.6969 4.09351 57.1664 4.64403 56.6859C4.98679 56.4485 5.35028 56.2425 5.73006 56.0703Z" fill="#FE330A"/>
<path d="M8.84267 47.1615C8.69188 47.0764 8.55653 46.9664 8.44229 46.8362C8.05692 46.2707 7.7116 45.6851 7.34124 45.1096C7.14606 44.7993 7.086 44.434 7.44134 44.2938C7.58262 44.2742 7.72655 44.29 7.86021 44.3398C7.99387 44.3896 8.11306 44.4718 8.20707 44.5791C8.61441 45.1272 8.98395 45.7024 9.31312 46.3007C9.37673 46.3831 9.41497 46.4822 9.42316 46.5859C9.43134 46.6897 9.40912 46.7936 9.35922 46.8849C9.30931 46.9762 9.23388 47.051 9.14214 47.1001C9.05041 47.1493 8.94634 47.1706 8.84267 47.1615Z" fill="#FE330A"/>
<path d="M16.6049 51.8912C16.6128 51.9784 16.5976 52.0662 16.5609 52.1457C16.5243 52.2252 16.4674 52.2937 16.396 52.3443C16.3246 52.395 16.2411 52.426 16.1539 52.4343C16.0668 52.4426 15.9789 52.4279 15.8992 52.3917C15.1941 52.141 14.5025 51.8537 13.8273 51.5309C13.6571 51.4408 13.6121 51.1005 13.507 50.8752C13.7422 50.7902 14.0074 50.58 14.2026 50.64C14.8933 50.8552 15.5539 51.1405 16.2045 51.4358C16.4047 51.5159 16.5949 51.6159 16.7851 51.706L16.6049 51.8912Z" fill="#FE330A"/>
<path d="M12.6513 47.9627C12.1859 47.9627 11.9106 47.5423 12.1509 47.212C12.6374 46.567 13.1604 45.9504 13.7174 45.3652C13.8194 45.3121 13.9327 45.2844 14.0477 45.2844C14.1627 45.2844 14.276 45.3121 14.378 45.3652C14.4424 45.4487 14.4841 45.5474 14.499 45.6518C14.5139 45.7562 14.5015 45.8626 14.4631 45.9608C13.9626 46.6064 13.4621 47.217 12.9216 47.8275C12.8418 47.8908 12.7498 47.9368 12.6513 47.9627Z" fill="#FE330A"/>
</g>
<defs>
<clipPath id="clip0_2021_7904">
<rect width="80" height="80" fill="white"/>
</clipPath>
</defs>
</svg>
